<svg id="Capa_1" enable-background="new 0 0 443.294 443.294" height="512" viewBox="0 0 443.294 443.294" width="512" xmlns="http://www.w3.org/2000/svg"
	fill="white"><path id="path-1_17_" d="m138.529 138.529h166.235v27.706h-166.235z" transform="translate(5 5)"
	/><path id="path-1_16_" d="m138.529 221.647h166.235v27.706h-166.235z" transform="translate(5 8)"/><path d="m138.529 304.765h83.118v27.706h-83.118z"/><path d="m346.323 27.706h-59.376c-9.131-16.42-34.038-27.706-65.3-27.706s-56.169 11.286-65.301 27.706h-59.375c-22.917 0-41.559 18.642-41.559 41.559v332.471c0 22.917 18.642 41.559 41.559 41.559h249.353c22.917 0 41.559-18.642 41.559-41.559v-332.471c-.001-22.917-18.643-41.559-41.56-41.559zm-124.676 0c7.65 0 13.853 6.201 13.853 13.853 0 7.65-6.203 13.853-13.853 13.853s-13.853-6.203-13.853-13.853c0-7.652 6.203-13.853 13.853-13.853zm138.529 374.029c0 7.643-6.209 13.853-13.853 13.853h-249.352c-7.643 0-13.853-6.209-13.853-13.853v-332.47c0-7.643 6.209-13.853 13.853-13.853h55.412v13.853c0 7.657 6.196 13.853 13.853 13.853h110.823c7.657 0 13.853-6.196 13.853-13.853v-13.853h55.412c7.643 0 13.853 6.209 13.853 13.853v332.47z"/></svg>